#!OML:ASF H:\ManfredObstacles\Project 1\Capture day 2\Session 1\male.ASF
:FULLY-SPECIFIED
:DEGREES
498
root 1.95617 15.7846 -26.7045 -165.884 4.39443 181.517
lowerback 5.27255 1.78439 0.825997
upperback 2.91182 2.58768 1.02656
thorax 0.0269761 1.36668 0.457194
lowerneck -36.2429 0.396315 -0.0369088
upperneck 33.7332 0.148631 -0.694935
head 18.9119 -0.30846 -0.374901
rclavicle -3.10104e-014 1.43125e-014
rhumerus -39.1365 11.8046 -91.6025
rradius 91.7073
rwrist 12.725
rhand -15.7821 -2.15626
rfingers 7.12502
rthumb 10.4104 -31.8785
lclavicle -3.10104e-014 1.43125e-014
lhumerus -57.6075 -22.1152 94.5392
lradius 86.8491
lwrist -23.255
lhand -17.557 8.07717
lfingers 7.12502
lthumb 8.69784 37.878
rfemur -18.8079 5.04632 25.3805
rtibia 37.3623
rfoot -4.38822 -15.8389
rtoes -33.8756
lfemur -29.1621 4.4885 -19.7719
ltibia 78.4583
lfoot 12.3209 17.2056
ltoes -4.29654
499
root 1.96704 15.7911 -26.9402 -165.86 4.19546 181.521
lowerback 5.26339 2.14483 0.968743
upperback 2.76758 3.06431 0.922641
thorax -0.103914 1.60176 0.243339
lowerneck -36.3605 -0.111192 -0.429369
upperneck 33.7476 -0.511451 -0.365398
head 18.9453 -0.55701 -0.319862
rclavicle -1.92821e-014 -5.1684e-015
rhumerus -37.998 12.248 -91.747
rradius 92.469
rwrist 12.628
rhand -15.7323 -2.04248
rfingers 7.12502
rthumb 10.4584 -31.7623
lclavicle -1.92821e-014 -5.1684e-015
lhumerus -58.5305 -22.4114 94.3132
lradius 87.5164
lwrist -22.9136
lhand -17.6976 7.96539
lfingers 7.12502
lthumb 8.56221 37.7718
rfemur -17.6472 5.01121 25.4333
rtibia 36.8691
rfoot -3.94879 -15.7248
rtoes -34.4372
lfemur -31.1303 4.35043 -19.638
ltibia 78.7181
lfoot 11.5558 17.9176
ltoes -4.32168
500
root 1.97703 15.8034 -27.1807 -165.834 3.97453 181.548
lowerback 5.24194 2.47201 1.0902
upperback 2.57459 3.49253 0.814901
thorax -0.275059 1.8102 0.0385488
lowerneck -36.3344 -0.564581 -0.742045
upperneck 33.7999 -1.15703 -0.0355763
head 18.9739 -0.793587 -0.275878
rclavicle -5.08889e-014 1.11319e-014
rhumerus -37.168 12.8045 -91.9225
rradius 93.298
rwrist 12.3248
rhand -15.7654 -1.94203
rfingers 7.12502
rthumb 10.4265 -31.6635
lclavicle -5.08889e-014 1.11319e-014
lhumerus -59.5506 -22.7373 94.0515
lradius 88.2944
lwrist -22.8092
lhand -17.8329 7.86169
lfingers 7.12502
lthumb 8.43156 37.6734
rfemur -16.418 4.98161 25.5217
rtibia 36.2402
rfoot -3.31881 -15.5404
rtoes -34.9595
lfemur -32.9807 4.17075 -19.4844
ltibia 78.6189
lfoot 10.9485 18.5389
ltoes -4.4895
501
root 1.98573 15.823 -27.4268 -165.794 3.73909 181.591
lowerback 5.2093 2.80207 1.2286
upperback 2.37164 3.92489 0.696408
thorax -0.444668 2.0201 -0.187093
lowerneck -36.3282 -1.032 -1.07412
upperneck 33.8866 -1.8384 0.341217
head 19.0346 -1.03949 -0.216159
rclavicle -8.34896e-015 4.37326e-015
rhumerus -36.5249 13.3493 -92.0274
rradius 94.176
rwrist 11.9954
rhand -15.7759 -1.89488
rfingers 7.12502
rthumb 10.4164 -31.6169
lclavicle -8.34896e-015 4.37326e-015
lhumerus -60.5382 -23.1926 93.7847
lradius 89.1503
lwrist -22.8253
lhand -17.9624 7.76801
lfingers 7.12502
lthumb 8.30664 37.5847
rfemur -15.131 4.97125 25.6305
rtibia 35.457
rfoot -2.49426 -15.2547
rtoes -35.4022
lfemur -34.706 3.95459 -19.3227
ltibia 78.1494
lfoot 10.4491 19.1156
ltoes -4.77157
502
root 1.99321 15.8505 -27.6793 -165.736 3.51003 181.648
lowerback 5.16981 3.18324 1.42197
upperback 2.12606 4.42614 0.561687
thorax -0.643631 2.26281 -0.464911
lowerneck -36.1921 -1.58961 -1.56063
upperneck 33.9726 -2.62574 0.832487
head 19.0799 -1.33184 -0.102863
rclavicle -2.60408e-014 -1.35174e-014
rhumerus -36.1456 13.7588 -92.0246
rradius 95.1229
rwrist 11.6529
rhand -15.7718 -1.90993
rfingers 7.12502
rthumb 10.4203 -31.6317
lclavicle -2.60408e-014 -1.35174e-014
lhumerus -61.5545 -23.8622 93.6104
lradius 90.0502
lwrist -22.9321
lhand -18.0555 7.65984
lfingers 7.12502
lthumb 8.21673 37.4801
rfemur -13.7858 5.00758 25.7495
rtibia 34.5041
rfoot -1.50358 -14.8543
rtoes -35.7239
lfemur -36.2817 3.72049 -19.1568
ltibia 77.2981
lfoot 10.0152 19.6732
ltoes -5.11157
503
root 1.99907 15.8864 -27.9391 -165.672 3.29318 181.71
lowerback 5.11858 3.54834 1.60401
upperback 1.873 4.90518 0.409397
thorax -0.837795 2.49343 -0.752975
lowerneck -36.0556 -2.10671 -1.98615
upperneck 34.0671 -3.39374 1.31706
head 19.1404 -1.61027 0.00153359
rclavicle -6.65929e-014 2.46493e-014
rhumerus -35.9199 14.203 -92.0153
rradius 96.0719
rwrist 11.2732
rhand -15.7457 -1.95904
rfingers 7.12502
rthumb 10.4455 -31.6795
lclavicle -6.65929e-014 2.46493e-014
lhumerus -62.5404 -24.5451 93.4051
lradius 90.9896
lwrist -23.0209
lhand -18.1374 7.50006
lfingers 7.12502
lthumb 8.13776 37.3234
rfemur -12.3609 5.10035 25.867
rtibia 33.3669
rfoot -0.33193 -14.3513
rtoes -35.9492
lfemur -37.676 3.46794 -19.0008
ltibia 76.0584
lfoot 9.61577 20.2275
ltoes -5.40611
504
root 2.00377 15.9302 -28.2058 -165.572 3.06437 181.75
lowerback 5.00554 3.91538 1.77528
upperback 1.60623 5.38444 0.242059
thorax -1.00555 2.72318 -1.04626
lowerneck -35.8915 -2.62466 -2.42077
upperneck 34.1357 -4.15987 1.8002
head 19.1911 -1.88986 0.107463
rclavicle -1.15295e-014 -1.19271e-014
rhumerus -35.8593 14.6305 -91.958
rradius 97.0211
rwrist 10.7967
rhand -15.7501 -2.03614
rfingers 7.12502
rthumb 10.4412 -31.7569
lclavicle -1.15295e-014 -1.19271e-014
lhumerus -63.4954 -25.2984 93.2366
lradius 91.9363
lwrist -23.0079
lhand -18.2343 7.25666
lfingers 7.12502
lthumb 8.04416 37.0836
rfemur -10.8897 5.20835 25.962
rtibia 32.0434
rfoot 1.00842 -13.7591
rtoes -36.0557
lfemur -38.9205 3.16335 -18.8704
ltibia 74.4311
lfoot 9.24636 20.7586
ltoes -5.59564
